<svg id="AdLiPo" data-name="AdLiPo" xmlns="http://www.w3.org/2000/svg"  style="display: none;"><defs><symbol id="adlipo-solid" viewBox="0 0 95 95"><path class="cls-1" d="M353.75,405.44c-4.55,4.34-8.48,7.91-12.19,11.7-1.62,1.64-3.4,1.78-5.43,1.77-12.31,0-24.62.09-36.93-.08-3.22-.05-4.24.81-4.21,4.13q.21,30,0,59.91c0,3,.51,4.37,4,4.34q30.19-.25,60.39,0c3.29,0,4.29-.93,4.24-4.2-.16-11.49.14-23-.16-34.45-.12-4.56,1.1-7.91,4.61-10.84,2.89-2.41,5.29-5.39,9-9.27v9.71c0,15.15,0,30.29,0,45.44-.05,10.82-5.79,16.67-16.62,16.73q-31.18.15-62.39,0c-10.93-.06-16.79-6.11-16.82-17.19q-.11-30.7,0-61.41c0-10.45,5.69-16.84,15.5-17,18.13-.22,36.27-.06,54.4,0A15.93,15.93,0,0,1,353.75,405.44Z" transform="translate(-281.2 -404.65)"/><path class="cls-2" d="M370.25,427c-16.2,16.15-32.46,32.25-48.53,48.54-2.47,2.5-4.47,3.87-7.57,1.5a14.57,14.57,0,0,1-10.22-10.29c-1.42-2.44.18-3.8,1.74-5.36q23-22.89,45.88-45.86c1.17-1.18,2.27-2.43,3.4-3.64a2.17,2.17,0,0,1,2.34,0,60.91,60.91,0,0,1,13.06,13.18C370.74,425.65,370.41,426.37,370.25,427Z" transform="translate(-281.2 -404.65)"/><path class="cls-3" d="M357.19,411c3.45-6.47,4.32-6.67,9-2l5.92,5.92c5.06,5.06,5.06,5.06-.17,10.1-3.22-.23-4.44-3.13-6.34-5C362.67,417.17,359.28,414.67,357.19,411Z" transform="translate(-281.2 -404.65)"/><path class="cls-4" d="M303.93,466.76a54.13,54.13,0,0,0,10.22,10.29c-.7,1.42,1.38,2.17.83,3.83h-3.3c-10.46.06-12.39-2.42-10.3-12.77C301.77,466.16,303,467,303.93,466.76Z" transform="translate(-281.2 -404.65)"/><path class="cls-5" d="M357.19,411,372,425l-1.7,2c-4.35-5.8-9.2-11.1-15.3-15.11C355.48,411.07,356.34,411.05,357.19,411Z" transform="translate(-281.2 -404.65)"/></symbol></defs></svg>